/* XPM */
static char * cato64_xpm[] = {
"64 64 7 1",
" 	c #D1BA8A",
".	c #DACFA3",
"+	c #D5C496",
"@	c #245F42",
"#	c #64C74A",
"$	c #C1D664",
"%	c #428749",
"  ..    ..++  ..++..    ..    ++  ..    ..++  ..++..    ..    ++",
"  ..    ..++  ..++..    ..    ++  ..    ..++  ..++..    ..    ++",
"++....++..++++      ++..    ..  ++....++..++++      ++..    ..  ",
"++....++..++++      ++..    ..  ++....++..++++      ++..    ..  ",
"  ..  ++++  ........  ++..++  ..  ..  ++++  ........  ++..++  ..",
"  ..  ++++  ........  ++..++  ..  ..  ++++  ........  ++..++  ..",
"..++++++..      ++++++  ..  ..@@@@++++++..      ++++++  ..  ....",
"..++++++..      ++++++  ..  ..@@@@++++++..      ++++++  ..  ....",
"++++  ..++  ..  ..  ....  ..@@##$$@@  ..++  ..  ..  ....  ....  ",
"++++  ..++  ..  ..  ....  ..@@##$$@@  ..++  ..  ..  ....  ....  ",
"..  ++..  ++  ..        ..@@##%%$$@@@@..  ++  ..        ....++..",
"..  ++..  ++  ..        ..@@##%%$$@@@@..  ++  ..        ....++..",
"++++..    ++++..  ++++....@@%%%%$$@@@@    ++++..  ++++....  ..  ",
"++++..    ++++..  ++++....@@%%%%$$@@@@    ++++..  ++++....  ..  ",
"..  ....++....  ..  ++  ..@@%%@@$$%%@@..++....  ..  ++  ..  ....",
"..  ....++....  ..  ++  ..@@%%@@$$%%@@..++....  ..  ++  ..  ....",
"  ..++++..  ++        ++@@##@@@@$$%%@@++..  ++        ++  ..  ..",
"  ..++++..  ++        ++@@##@@@@$$%%@@++..  ++        ++  ..  ..",
"  ..++..  ..  ++..  ..  @@##@@$$$$%%@@..  ..  ++..  ..  ....++  ",
"  ..++..  ..  ++..  ..  @@##@@$$$$%%@@..  ..  ++..  ..  ....++  ",
"..  ..  ..++  ++++++..  @@%%@@$$##%%@@  ..++  ++++++..  ++++..  ",
"..  ..  ..++  ++++++..  @@%%@@$$##%%@@  ..++  ++++++..  ++++..  ",
"++++....    ++..  ..++++@@%%%%$$##%%@@..    ++..  ..++++++    ..",
"++++....    ++..  ..++++@@%%%%$$##%%@@..    ++..  ..++++++    ..",
"++..    ++++..@@%%$$##  @@%%@@$$@@%%@@  ++++..  ..      ++  ++++",
"++..    ++++..@@%%$$##  @@%%@@$$@@%%@@  ++++..  ..      ++  ++++",
"  ..++..  ++@@##@@$$%%$$@@%%@@$$%%%%@@..  ++..++..  ..  ....++..",
"  ..++..  ++@@##@@$$%%$$@@%%@@$$%%%%@@..  ++..++..  ..  ....++..",
"..++..  ++++@@@@@@$$%%##@@%%@@####%%@@  ++++++..  ..++..    ....",
"..++..  ++++@@@@@@$$%%##@@%%@@####%%@@  ++++++..  ..++..    ....",
"++..++..++  @@$$$$##%%##@@%%@@##$$##@@..++  @@%%$$++....++..++..",
"++..++..++  @@$$$$##%%##@@%%@@##$$##@@..++  @@%%$$++....++..++..",
"  ..    ..++@@$$@@$$%%##@@%%%%$$$$%%@@  ..@@$$##@@$$    ..    ++",
"  ..    ..++@@$$@@$$%%##@@%%%%$$$$%%@@  ..@@$$##@@$$    ..    ++",
"++....++..++@@%%@@$$%%$$@@%%%%##$$@@..++%%@@$$##@@%%$$..    ..  ",
"++....++..++@@%%@@$$%%$$@@%%%%##$$@@..++%%@@$$##@@%%$$..    ..  ",
"  ..  ++++  @@##@@##%%$$@@%%@@%%##%%  @@##@@$$%%@@$$%%++..++  ..",
"  ..  ++++  @@##@@##%%$$@@%%@@%%##%%  @@##@@$$%%@@$$%%++..++  ..",
"..++++++..  @@%%@@$$@@$$@@%%@@%%##%%++@@$$@@$$%%@@@@%%$$..  ....",
"..++++++..  @@%%@@$$@@$$@@%%@@%%##%%++@@$$@@$$%%@@@@%%$$..  ....",
"++++  ..++  @@##@@$$@@##$$%%@@%%##%%  ##%%@@%%@@%%%%$$@@  ....  ",
"++++  ..++  @@##@@$$@@##$$%%@@%%##%%  ##%%@@%%@@%%%%$$@@  ....  ",
"..  ++..  ++@@%%@@$$####%%%%@@%%%%####$$@@##%%@@$$%%%%@@....++..",
"..  ++..  ++@@%%@@$$####%%%%@@%%%%####$$@@##%%@@$$%%%%@@....++..",
"++++..    ++++@@@@@@@@@@@@@@@@##$$$$@@@@@@@@@@@@@@@@@@@@..  ..  ",
"++++..    ++++@@@@@@@@@@@@@@@@##$$$$@@@@@@@@@@@@@@@@@@@@..  ..  ",
"..  ....++....  ..  ++  @@@@@@$$####$$%%%%$$%%%%$$@@@@  ..  ....",
"..  ....++....  ..  ++  @@@@@@$$####$$%%%%$$%%%%$$@@@@  ..  ....",
"  ..++++..  ++        ++@@%%@@##%%$$##@@@@@@@@@@@@@@  ++  ..  ..",
"  ..++++..  ++        ++@@%%@@##%%$$##@@@@@@@@@@@@@@  ++  ..  ..",
"  ..++..  ..  ++..  ..  @@%%@@@@@@%%##@@  ..  ++..  ..  ....++  ",
"  ..++..  ..  ++..  ..  @@%%@@@@@@%%##@@  ..  ++..  ..  ....++  ",
"..  ..  ..++  ++++++..  @@$$@@%%@@%%##@@..++  ++++++..  ++++..  ",
"..  ..  ..++  ++++++..  @@$$@@%%@@%%##@@..++  ++++++..  ++++..  ",
"++++....    ++..  ..++++@@%%@@%%##@@%%@@    ++..  ..++++++    ..",
"++++....    ++..  ..++++@@%%@@%%##@@%%@@    ++..  ..++++++    ..",
"++..    ++++..  ..      @@##@@$$%%%%$$@@++++..  ..      ++  ++++",
"++..    ++++..  ..      @@##@@$$%%%%$$@@++++..  ..      ++  ++++",
"  ..++..  ++..++..  ..  @@##@@@@%%$$@@@@  ++..++..  ..  ....++..",
"  ..++..  ++..++..  ..  @@##@@@@%%$$@@@@  ++..++..  ..  ....++..",
"..++..  ++++++..  ..++..@@@@@@@@@@@@@@@@++++++..  ..++..    ....",
"..++..  ++++++..  ..++..@@@@@@@@@@@@@@@@++++++..  ..++..    ....",
"++..++..++  ..  ..++....++..++..++..++..++  ..  ..++....++..++..",
"++..++..++  ..  ..++....++..++..++..++..++  ..  ..++....++..++.."};
