/* XPM */
static char * coletavel64_xpm[] = {
"64 64 9 1",
" 	c #D1BA8A",
".	c #DACFA3",
"+	c #D5C496",
"@	c #A45944",
"#	c #C27762",
"$	c #DB9056",
"%	c #2A192C",
"&	c #642631",
"*	c #E99E64",
"  ..    ..++  ..++..    ..    ++  ..    ..++  ..++..    ..    ++",
"  ..    ..++  ..++..    ..    ++  ..    ..++  ..++..    ..    ++",
"++....++..++++      ++..    ..  ++....++..++++      ++..    ..  ",
"++....++..++++      ++..    ..  ++....++..++++      ++..    ..  ",
"  ..  ++++  ........  ++..++  ..  ..  ++++  ........  ++..++  ..",
"  ..  ++++  ........  ++..++  ..  ..  ++++  ........  ++..++  ..",
"..++++++..      ++++++  ..  ......++++++..      ++++++  ..  ....",
"..++++++..      ++++++  ..  ......++++++..      ++++++  ..  ....",
"++++  ..++  ..  ..  ....  ....  ++++  ..++  ..  ..  ....  ....  ",
"++++  ..++  ..  ..  ....  ....  ++++  ..++  ..  ..  ....  ....  ",
"..  ++..  ++  ..        ....++....  ++..  ++  ..        ....++..",
"..  ++..  ++  ..        ....++....  ++..  ++  ..        ....++..",
"++++..    ++++..  ++++....  ..  ++++..    ++++..  ++++....  ..  ",
"++++..    ++++..  ++++....  ..  ++++..    ++++..  ++++....  ..  ",
"..  ....++....  ..  ++  ..  ......  ....++....  ..  ++  ..  ....",
"..  ....++....  ..  ++  ..  ......  ....++....  ..  ++  ..  ....",
"  ..++++..  ++        ++  ..@@##$$$$$$++..  ++        ++  ..  ..",
"  ..++++..  ++        ++  ..@@##$$$$$$++..  ++        ++  ..  ..",
"  ..++..  ..  ++..  ..  @@##@@####$$$$##$$..  ++..  ..  ....++  ",
"  ..++..  ..  ++..  ..  @@##@@####$$$$##$$..  ++..  ..  ....++  ",
"..  ..  ..++  ++++++..  @@####@@##$$####$$++  ++++++..  ++++..  ",
"..  ..  ..++  ++++++..  @@####@@##$$####$$++  ++++++..  ++++..  ",
"++++....    ++..  ..++++++@@##@@##$$##$$    ++..  ..++++++    ..",
"++++....    ++..  ..++++++@@##@@##$$##$$    ++..  ..++++++    ..",
"++..    ++++..  ..      ++  %%%%&&&&%%  ++++..  ..      ++  ++++",
"++..    ++++..  ..      ++  %%%%&&&&%%  ++++..  ..      ++  ++++",
"  ..++..  ++..++..  ..  ########$$$$$$$$$$++..++..  ..  ....++..",
"  ..++..  ++..++..  ..  ########$$$$$$$$$$++..++..  ..  ....++..",
"..++..  ++++++..  ..++####@@####%%**$$$$$$$$++..  ..++..    ....",
"..++..  ++++++..  ..++####@@####%%**$$$$$$$$++..  ..++..    ....",
"++..++..++  ..  ..++####@@####%%%%&&**$$$$$$$$  ..++....++..++..",
"++..++..++  ..  ..++####@@####%%%%&&**$$$$$$$$  ..++....++..++..",
"  ..    ..++  ..++..########%%**&&**&&**$$$$$$..++..    ..    ++",
"  ..    ..++  ..++..########%%**&&**&&**$$$$$$..++..    ..    ++",
"++....++..++++    ##@@##@@##%%**%%********$$$$$$    ++..    ..  ",
"++....++..++++    ##@@##@@##%%**%%********$$$$$$    ++..    ..  ",
"  ..  ++++  ......@@##@@######%%%%%%********$$$$....  ++..++  ..",
"  ..  ++++  ......@@##@@######%%%%%%********$$$$....  ++..++  ..",
"..++++++..      ++##@@@@@@######%%**&&****$$$$$$++++++  ..  ....",
"..++++++..      ++##@@@@@@######%%**&&****$$$$$$++++++  ..  ....",
"++++  ..++  ..  ..@@##@@####%%##%%**%%**$$$$##$$..  ....  ....  ",
"++++  ..++  ..  ..@@##@@####%%##%%**%%**$$$$##$$..  ....  ....  ",
"..  ++..  ++  ..  @@@@##@@####%%%%%%**##$$##$$##        ....++..",
"..  ++..  ++  ..  @@@@##@@####%%%%%%**##$$##$$##        ....++..",
"++++..    ++++..  ++@@@@@@@@####%%####**##$$##..  ++++....  ..  ",
"++++..    ++++..  ++@@@@@@@@####%%####**##$$##..  ++++....  ..  ",
"..  ....++....  ..  ++@@@@@@@@@@@@##########..  ..  ++  ..  ....",
"..  ....++....  ..  ++@@@@@@@@@@@@##########..  ..  ++  ..  ....",
"  ..++++..  ++        ++  ..  ..  ..++++..  ++        ++  ..  ..",
"  ..++++..  ++        ++  ..  ..  ..++++..  ++        ++  ..  ..",
"  ..++..  ..  ++..  ..  ....++    ..++..  ..  ++..  ..  ....++  ",
"  ..++..  ..  ++..  ..  ....++    ..++..  ..  ++..  ..  ....++  ",
"..  ..  ..++  ++++++..  ++++..  ..  ..  ..++  ++++++..  ++++..  ",
"..  ..  ..++  ++++++..  ++++..  ..  ..  ..++  ++++++..  ++++..  ",
"++++....    ++..  ..++++++    ..++++....    ++..  ..++++++    ..",
"++++....    ++..  ..++++++    ..++++....    ++..  ..++++++    ..",
"++..    ++++..  ..      ++  ++++++..    ++++..  ..      ++  ++++",
"++..    ++++..  ..      ++  ++++++..    ++++..  ..      ++  ++++",
"  ..++..  ++..++..  ..  ....++..  ..++..  ++..++..  ..  ....++..",
"  ..++..  ++..++..  ..  ....++..  ..++..  ++..++..  ..  ....++..",
"..++..  ++++++..  ..++..    ......++..  ++++++..  ..++..    ....",
"..++..  ++++++..  ..++..    ......++..  ++++++..  ..++..    ....",
"++..++..++  ..  ..++....++..++..++..++..++  ..  ..++....++..++..",
"++..++..++  ..  ..++....++..++..++..++..++  ..  ..++....++..++.."};
