/* XPM */
static char * cowboy64_xpm[] = {
"64 64 15 1",
" 	c #D1BA8A",
".	c #DACFA3",
"+	c #D5C496",
"@	c #5E3D4F",
"#	c #8A5161",
"$	c #B36A67",
"%	c #403F61",
"&	c #4C5378",
"*	c #5D3C4F",
"=	c #B4998E",
"-	c #F7BFA7",
";	c #A43352",
">	c #E85641",
",	c #8D7468",
"'	c #947869",
"  ..    ..++  ..++..    ..    ++  ..    ..++  ..++..    ..    ++",
"  ..    ..++  ..++..    ..    ++  ..    ..++  ..++..    ..    ++",
"++....++..++++      ++..    ..  ++....++..++++      ++..    ..  ",
"++....++..++++      ++..    ..  ++....++..++++      ++..    ..  ",
"  ..  ++++  ........  ++..++  ..  ..  ++++  ........  ++..++  ..",
"  ..  ++++  ........  ++..++  ..  ..  ++++  ........  ++..++  ..",
"..++++++..      ++++++  ..  ......++++++..      ++++++  ..  ....",
"..++++++..      ++++++  ..  ......++++++..      ++++++  ..  ....",
"++++  ..++  ..  ..  ....  ....  ++++  ..++  ..  ..  ....  ....  ",
"++++  ..++  ..  ..  ....  ....  ++++  ..++  ..  ..  ....  ....  ",
"..  ++..  ++  ..        ....++....  ++..  ++  ..        ....++..",
"..  ++..  ++  ..        ....++....  ++..  ++  ..        ....++..",
"++++..    ++++..  ++++....  ..  ++++..    ++++..  ++++....  ..  ",
"++++..    ++++..  ++++....  ..  ++++..    ++++..  ++++....  ..  ",
"..  ....++....  ..  ++  ..@@@@@@@@@@@@..++....  ..  ++  ..  ....",
"..  ....++....  ..  ++  ..@@@@@@@@@@@@..++....  ..  ++  ..  ....",
"  ..++++..  ++        ++@@##$$$$$$$$##@@..  ++        ++  ..  ..",
"  ..++++..  ++        ++@@##$$$$$$$$##@@..  ++        ++  ..  ..",
"  ..++..  ..  ++..@@@@@@@@##$$$$$$$$##@@@@@@@@++..  ..  ....++  ",
"  ..++..  ..  ++..@@@@@@@@##$$$$$$$$##@@@@@@@@++..  ..  ....++  ",
"..  ..  ..++  ++@@##$$$$%%&&&&&&&&&&&&%%$$$$##@@++++..  ++++..  ",
"..  ..  ..++  ++@@##$$$$%%&&&&&&&&&&&&%%$$$$##@@++++..  ++++..  ",
"++++....    ++..**####$$$$$$$$$$$$$$$$$$$$####@@  ..++++++    ..",
"++++....    ++..**####$$$$$$$$$$$$$$$$$$$$####@@  ..++++++    ..",
"++..    ++++..  @@######@@@@@@@@@@@@@@@@######@@..      ++  ++++",
"++..    ++++..  @@######@@@@@@@@@@@@@@@@######@@..      ++  ++++",
"  ..++..  ++..++..@@##@@==------------==@@##@@++..  ..  ....++..",
"  ..++..  ++..++..@@##@@==------------==@@##@@++..  ..  ....++..",
"..++..  ++++++..  ..@@@@==--&&----&&--==@@@@++..  ..++..    ....",
"..++..  ++++++..  ..@@@@==--&&----&&--==@@@@++..  ..++..    ....",
"++..++..++  ..  ..++..@@==--%%----%%--==@@  ..  ..++....++..++..",
"++..++..++  ..  ..++..@@==--%%----%%--==@@  ..  ..++....++..++..",
"  ..    ..++  ..++..    @@==--------==@@..++  ..++..    ..    ++",
"  ..    ..++  ..++..    @@==--------==@@..++  ..++..    ..    ++",
"++....++..++++      ++..@@############@@..++++      ++..    ..  ",
"++....++..++++      ++..@@############@@..++++      ++..    ..  ",
"  ..  ++++  ........  @@;;>>;;>>>>;;>>;;@@  ........  ++..++  ..",
"  ..  ++++  ........  @@;;>>;;>>>>;;>>;;@@  ........  ++..++  ..",
"..++++++..      ++++++--####$$$$$$$$####--      ++++++  ..  ....",
"..++++++..      ++++++--####$$$$$$$$####--      ++++++  ..  ....",
"++++  ..++  ..  ..  ....@@####@@@@####@@++  ..  ..  ....  ....  ",
"++++  ..++  ..  ..  ....@@####@@@@####@@++  ..  ..  ....  ....  ",
"..  ++..  ++  ..      ,,,,@@@@,,''@@@@''''++  ..        ....++..",
"..  ++..  ++  ..      ,,,,@@@@,,''@@@@''''++  ..        ....++..",
"++++..    ++++..  ++++..,,,,,,,,'''''',,  ++++..  ++++....  ..  ",
"++++..    ++++..  ++++..,,,,,,,,'''''',,  ++++..  ++++....  ..  ",
"..  ....++....  ..  ++  ..  ......  ....++....  ..  ++  ..  ....",
"..  ....++....  ..  ++  ..  ......  ....++....  ..  ++  ..  ....",
"  ..++++..  ++        ++  ..  ..  ..++++..  ++        ++  ..  ..",
"  ..++++..  ++        ++  ..  ..  ..++++..  ++        ++  ..  ..",
"  ..++..  ..  ++..  ..  ....++    ..++..  ..  ++..  ..  ....++  ",
"  ..++..  ..  ++..  ..  ....++    ..++..  ..  ++..  ..  ....++  ",
"..  ..  ..++  ++++++..  ++++..  ..  ..  ..++  ++++++..  ++++..  ",
"..  ..  ..++  ++++++..  ++++..  ..  ..  ..++  ++++++..  ++++..  ",
"++++....    ++..  ..++++++    ..++++....    ++..  ..++++++    ..",
"++++....    ++..  ..++++++    ..++++....    ++..  ..++++++    ..",
"++..    ++++..  ..      ++  ++++++..    ++++..  ..      ++  ++++",
"++..    ++++..  ..      ++  ++++++..    ++++..  ..      ++  ++++",
"  ..++..  ++..++..  ..  ....++..  ..++..  ++..++..  ..  ....++..",
"  ..++..  ++..++..  ..  ....++..  ..++..  ++..++..  ..  ....++..",
"..++..  ++++++..  ..++..    ......++..  ++++++..  ..++..    ....",
"..++..  ++++++..  ..++..    ......++..  ++++++..  ..++..    ....",
"++..++..++  ..  ..++....++..++..++..++..++  ..  ..++....++..++..",
"++..++..++  ..  ..++....++..++..++..++..++  ..  ..++....++..++.."};
