/* XPM */
static char * areia minecraft 32_xpm[] = {
"32 32 3 1",
" 	c #D1BA8A",
".	c #DACFA3",
"+	c #D5C496",
" .  .+ .+.  .  + .  .+ .+.  .  +",
"+..+.++   +.  . +..+.++   +.  . ",
" . ++ .... +.+ . . ++ .... +.+ .",
".+++.   +++ . ...+++.   +++ . ..",
"++ .+ . . .. .. ++ .+ . . .. .. ",
". +. + .    ..+.. +. + .    ..+.",
"++.  ++. ++.. . ++.  ++. ++.. . ",
". ..+.. . + . ... ..+.. . + . ..",
" .++. +    + . . .++. +    + . .",
" .+. . +. . ..+  .+. . +. . ..+ ",
". . .+ +++. ++. . . .+ +++. ++. ",
"++..  +. .+++  .++..  +. .+++  .",
"+.  ++. .   + +++.  ++. .   + ++",
" .+. +.+. . ..+. .+. +.+. . ..+.",
".+. +++. .+.  ...+. +++. .+.  ..",
"+.+.+ . .+..+.+.+.+.+ . .+..+.+.",
" .  .+ .+.  .  + .  .+ .+.  .  +",
"+..+.++   +.  . +..+.++   +.  . ",
" . ++ .... +.+ . . ++ .... +.+ .",
".+++.   +++ . ...+++.   +++ . ..",
"++ .+ . . .. .. ++ .+ . . .. .. ",
". +. + .    ..+.. +. + .    ..+.",
"++.  ++. ++.. . ++.  ++. ++.. . ",
". ..+.. . + . ... ..+.. . + . ..",
" .++. +    + . . .++. +    + . .",
" .+. . +. . ..+  .+. . +. . ..+ ",
". . .+ +++. ++. . . .+ +++. ++. ",
"++..  +. .+++  .++..  +. .+++  .",
"+.  ++. .   + +++.  ++. .   + ++",
" .+. +.+. . ..+. .+. +.+. . ..+.",
".+. +++. .+.  ...+. +++. .+.  ..",
"+.+.+ . .+..+.+.+.+.+ . .+..+.+."};
