/* XPM */
static char * tnt64_xpm[] = {
"64 64 10 1",
" 	c #D1BA8A",
".	c #DACFA3",
"+	c #D5C496",
"@	c #48210E",
"#	c #A61402",
"$	c #B52C1B",
"%	c #B78D63",
"&	c #931101",
"*	c #906A44",
"=	c #840E00",
"  ..    ..++  ..++..    ..    ++  ..    ..++  ..++..    ..    ++",
"  ..    ..++  ..++..    ..    ++  ..    ..++  ..++..    ..    ++",
"++....++..++++      ++..    ..  ++....++..++++      ++..    ..  ",
"++....++..++++      ++..    ..  ++....++..++++      ++..    ..  ",
"  ..  ++++  ........  ++..++  ..  ..  ++++  ........  ++..++  ..",
"  ..  ++++  ........  ++..++  ..  ..  ++++  ........  ++..++  ..",
"..++++++..      ++++++  ..  ......++++++..      ++++++  ..  ....",
"..++++++..      ++++++  ..  ......++++++..      ++++++  ..  ....",
"++++  ..++  ..  ..  ....  ....  ++++  ..++  ..  ..  ....  ....  ",
"++++  ..++  ..  ..  ....  ....  ++++  ..++  ..  ..  ....  ....  ",
"..  ++..  ++  ..        ....++....  ++..  ++  ..        ....++..",
"..  ++..  ++  ..        ....++....  ++..  ++  ..        ....++..",
"++++..    ++++..  ++++....  ..  ++++..    ++++..  ++++....  ..  ",
"++++..    ++++..  ++++....  ..  ++++..    ++++..  ++++....  ..  ",
"..  ....++....  ..  ++  ..  ......  ....++....  ..  ++  ..  ....",
"..  ....++....  ..  ++  ..  ......  ....++....  ..  ++  ..  ....",
"  ..++++..  ++        ++  ..  ..  ..++++..  ++        ++  ..  ..",
"  ..++++..  ++        ++  ..  ..  ..++++..  ++        ++  ..  ..",
"  ..++..  ..  ++..  ..  ....++    ..++..  ..  ++..  ..  ....++  ",
"  ..++..  ..  ++..  ..  ....++    ..++..  ..  ++..  ..  ....++  ",
"..  ..  ..++  ++++++..      ++  ++++@@@@      ++++++..  ++++..  ",
"..  ..  ..++  ++++++..      ++  ++++@@@@      ++++++..  ++++..  ",
"++++....    ++..  ..++  ..  ..####@@  ..++..++..  ..++++++    ..",
"++++....    ++..  ..++  ..  ..####@@  ..++..++..  ..++++++    ..",
"++..    ++++..  ..    ..++..##$$@@$$##++..  ..  ..      ++  ++++",
"++..    ++++..  ..    ..++..##$$@@$$##++..  ..  ..      ++  ++++",
"  ..++..  ++..++..  ..++..##$$$$@@$$$$##++....++..  ..  ....++..",
"  ..++..  ++..++..  ..++..##$$$$@@$$$$##++....++..  ..  ....++..",
"..++..  ++++++..  ..++..%%&&##$$$$$$##&&%%  ++..  ..++..    ....",
"..++..  ++++++..  ..++..%%&&##$$$$$$##&&%%  ++..  ..++..    ....",
"++..++..++  ..  ..++..%%**==&&######&&==**%%..  ..++....++..++..",
"++..++..++  ..  ..++..%%**==&&######&&==**%%..  ..++....++..++..",
"  ..    ..++  ..++..  ..%%**==&&&&&&==**%%++  ..++..    ..    ++",
"  ..    ..++  ..++..  ..%%**==&&&&&&==**%%++  ..++..    ..    ++",
"++....++..++++      ++++++%%**======**%%++++++      ++..    ..  ",
"++....++..++++      ++++++%%**======**%%++++++      ++..    ..  ",
"  ..  ++++  ........    ....%%******%%++  ..........  ++..++  ..",
"  ..  ++++  ........    ....%%******%%++  ..........  ++..++  ..",
"..++++++..      ++++++      ..%%%%%%..  ++..    ++++++  ..  ....",
"..++++++..      ++++++      ..%%%%%%..  ++..    ++++++  ..  ....",
"++++  ..++  ..  ..  ....  ....  ++++  ..++  ..  ..  ....  ....  ",
"++++  ..++  ..  ..  ....  ....  ++++  ..++  ..  ..  ....  ....  ",
"..  ++..  ++  ..        ....++....  ++..  ++  ..        ....++..",
"..  ++..  ++  ..        ....++....  ++..  ++  ..        ....++..",
"++++..    ++++..  ++++....  ..  ++++..    ++++..  ++++....  ..  ",
"++++..    ++++..  ++++....  ..  ++++..    ++++..  ++++....  ..  ",
"..  ....++....  ..  ++  ..  ......  ....++....  ..  ++  ..  ....",
"..  ....++....  ..  ++  ..  ......  ....++....  ..  ++  ..  ....",
"  ..++++..  ++        ++  ..  ..  ..++++..  ++        ++  ..  ..",
"  ..++++..  ++        ++  ..  ..  ..++++..  ++        ++  ..  ..",
"  ..++..  ..  ++..  ..  ....++    ..++..  ..  ++..  ..  ....++  ",
"  ..++..  ..  ++..  ..  ....++    ..++..  ..  ++..  ..  ....++  ",
"..  ..  ..++  ++++++..  ++++..  ..  ..  ..++  ++++++..  ++++..  ",
"..  ..  ..++  ++++++..  ++++..  ..  ..  ..++  ++++++..  ++++..  ",
"++++....    ++..  ..++++++    ..++++....    ++..  ..++++++    ..",
"++++....    ++..  ..++++++    ..++++....    ++..  ..++++++    ..",
"++..    ++++..  ..      ++  ++++++..    ++++..  ..      ++  ++++",
"++..    ++++..  ..      ++  ++++++..    ++++..  ..      ++  ++++",
"  ..++..  ++..++..  ..  ....++..  ..++..  ++..++..  ..  ....++..",
"  ..++..  ++..++..  ..  ....++..  ..++..  ++..++..  ..  ....++..",
"..++..  ++++++..  ..++..    ......++..  ++++++..  ..++..    ....",
"..++..  ++++++..  ..++..    ......++..  ++++++..  ..++..    ....",
"++..++..++  ..  ..++....++..++..++..++..++  ..  ..++....++..++..",
"++..++..++  ..  ..++....++..++..++..++..++  ..  ..++....++..++.."};
