/* XPM */
static char * areia64_xpm[] = {
"64 64 3 1",
" 	c #D1BA8A",
".	c #DACFA3",
"+	c #D5C496",
"  ..    ..++  ..++..    ..    ++  ..    ..++  ..++..    ..    ++",
"  ..    ..++  ..++..    ..    ++  ..    ..++  ..++..    ..    ++",
"++....++..++++      ++..    ..  ++....++..++++      ++..    ..  ",
"++....++..++++      ++..    ..  ++....++..++++      ++..    ..  ",
"  ..  ++++  ........  ++..++  ..  ..  ++++  ........  ++..++  ..",
"  ..  ++++  ........  ++..++  ..  ..  ++++  ........  ++..++  ..",
"..++++++..      ++++++  ..  ......++++++..      ++++++  ..  ....",
"..++++++..      ++++++  ..  ......++++++..      ++++++  ..  ....",
"++++  ..++  ..  ..  ....  ....  ++++  ..++  ..  ..  ....  ....  ",
"++++  ..++  ..  ..  ....  ....  ++++  ..++  ..  ..  ....  ....  ",
"..  ++..  ++  ..        ....++....  ++..  ++  ..        ....++..",
"..  ++..  ++  ..        ....++....  ++..  ++  ..        ....++..",
"++++..    ++++..  ++++....  ..  ++++..    ++++..  ++++....  ..  ",
"++++..    ++++..  ++++....  ..  ++++..    ++++..  ++++....  ..  ",
"..  ....++....  ..  ++  ..  ......  ....++....  ..  ++  ..  ....",
"..  ....++....  ..  ++  ..  ......  ....++....  ..  ++  ..  ....",
"  ..++++..  ++        ++  ..  ..  ..++++..  ++        ++  ..  ..",
"  ..++++..  ++        ++  ..  ..  ..++++..  ++        ++  ..  ..",
"  ..++..  ..  ++..  ..  ....++    ..++..  ..  ++..  ..  ....++  ",
"  ..++..  ..  ++..  ..  ....++    ..++..  ..  ++..  ..  ....++  ",
"..  ..  ..++  ++++++..  ++++..  ..  ..  ..++  ++++++..  ++++..  ",
"..  ..  ..++  ++++++..  ++++..  ..  ..  ..++  ++++++..  ++++..  ",
"++++....    ++..  ..++++++    ..++++....    ++..  ..++++++    ..",
"++++....    ++..  ..++++++    ..++++....    ++..  ..++++++    ..",
"++..    ++++..  ..      ++  ++++++..    ++++..  ..      ++  ++++",
"++..    ++++..  ..      ++  ++++++..    ++++..  ..      ++  ++++",
"  ..++..  ++..++..  ..  ....++..  ..++..  ++..++..  ..  ....++..",
"  ..++..  ++..++..  ..  ....++..  ..++..  ++..++..  ..  ....++..",
"..++..  ++++++..  ..++..    ......++..  ++++++..  ..++..    ....",
"..++..  ++++++..  ..++..    ......++..  ++++++..  ..++..    ....",
"++..++..++  ..  ..++....++..++..++..++..++  ..  ..++....++..++..",
"++..++..++  ..  ..++....++..++..++..++..++  ..  ..++....++..++..",
"  ..    ..++  ..++..    ..    ++  ..    ..++  ..++..    ..    ++",
"  ..    ..++  ..++..    ..    ++  ..    ..++  ..++..    ..    ++",
"++....++..++++      ++..    ..  ++....++..++++      ++..    ..  ",
"++....++..++++      ++..    ..  ++....++..++++      ++..    ..  ",
"  ..  ++++  ........  ++..++  ..  ..  ++++  ........  ++..++  ..",
"  ..  ++++  ........  ++..++  ..  ..  ++++  ........  ++..++  ..",
"..++++++..      ++++++  ..  ......++++++..      ++++++  ..  ....",
"..++++++..      ++++++  ..  ......++++++..      ++++++  ..  ....",
"++++  ..++  ..  ..  ....  ....  ++++  ..++  ..  ..  ....  ....  ",
"++++  ..++  ..  ..  ....  ....  ++++  ..++  ..  ..  ....  ....  ",
"..  ++..  ++  ..        ....++....  ++..  ++  ..        ....++..",
"..  ++..  ++  ..        ....++....  ++..  ++  ..        ....++..",
"++++..    ++++..  ++++....  ..  ++++..    ++++..  ++++....  ..  ",
"++++..    ++++..  ++++....  ..  ++++..    ++++..  ++++....  ..  ",
"..  ....++....  ..  ++  ..  ......  ....++....  ..  ++  ..  ....",
"..  ....++....  ..  ++  ..  ......  ....++....  ..  ++  ..  ....",
"  ..++++..  ++        ++  ..  ..  ..++++..  ++        ++  ..  ..",
"  ..++++..  ++        ++  ..  ..  ..++++..  ++        ++  ..  ..",
"  ..++..  ..  ++..  ..  ....++    ..++..  ..  ++..  ..  ....++  ",
"  ..++..  ..  ++..  ..  ....++    ..++..  ..  ++..  ..  ....++  ",
"..  ..  ..++  ++++++..  ++++..  ..  ..  ..++  ++++++..  ++++..  ",
"..  ..  ..++  ++++++..  ++++..  ..  ..  ..++  ++++++..  ++++..  ",
"++++....    ++..  ..++++++    ..++++....    ++..  ..++++++    ..",
"++++....    ++..  ..++++++    ..++++....    ++..  ..++++++    ..",
"++..    ++++..  ..      ++  ++++++..    ++++..  ..      ++  ++++",
"++..    ++++..  ..      ++  ++++++..    ++++..  ..      ++  ++++",
"  ..++..  ++..++..  ..  ....++..  ..++..  ++..++..  ..  ....++..",
"  ..++..  ++..++..  ..  ....++..  ..++..  ++..++..  ..  ....++..",
"..++..  ++++++..  ..++..    ......++..  ++++++..  ..++..    ....",
"..++..  ++++++..  ..++..    ......++..  ++++++..  ..++..    ....",
"++..++..++  ..  ..++....++..++..++..++..++  ..  ..++....++..++..",
"++..++..++  ..  ..++....++..++..++..++..++  ..  ..++....++..++.."};
