/* XPM */
static char * xerife64_xpm[] = {
"64 64 21 1",
" 	c #D1BA8A",
".	c #DACFA3",
"+	c #D5C496",
"@	c #795949",
"#	c #5E3D4F",
"$	c #8A5161",
"%	c #E85641",
"&	c #432C22",
"*	c #624935",
"=	c #5D3C4F",
"-	c #B4998E",
";	c #F7BFA7",
">	c #808080",
",	c #403F61",
"'	c #DAB020",
")	c #A43352",
"!	c #EDD152",
"~	c #BCAF9A",
"{	c #B36A67",
"]	c #8D7468",
"^	c #947869",
"  ..    ..++  ..++..    ..    ++  ..    ..++  ..++..    ..    ++",
"  ..    ..++  ..++..    ..    ++  ..    ..++  ..++..    ..    ++",
"++....++..++++      ++..    ..  ++....++..++++      ++..    ..  ",
"++....++..++++      ++..    ..  ++....++..++++      ++..    ..  ",
"  ..  ++++  ........  ++..++  ..  ..  ++++  ........  ++..++  ..",
"  ..  ++++  ........  ++..++  ..  ..  ++++  ........  ++..++  ..",
"..++++++..      ++++++  ..  ......++++++..      ++++++  ..  ....",
"..++++++..      ++++++  ..  ......++++++..      ++++++  ..  ....",
"++++  ..++  ..  ..  ....  ....  ++++  ..++  ..  ..  ....  ....  ",
"++++  ..++  ..  ..  ....  ....  ++++  ..++  ..  ..  ....  ....  ",
"..  ++..  ++  ..        ....++....@@++..  ++  ..        ....++..",
"..  ++..  ++  ..        ....++....@@++..  ++  ..        ....++..",
"++++..    ++++..  ++++....  ..  @@++..    ++++..  ++++....  ..  ",
"++++..    ++++..  ++++....  ..  @@++..    ++++..  ++++....  ..  ",
"..  ....++....  ..  ++  ..############..++....  ..  ++  ..  ....",
"..  ....++....  ..  ++  ..############..++....  ..  ++  ..  ....",
"  ..++++..  ++        ++##$$%%%%%%%%$$##..  ++        ++  ..  ..",
"  ..++++..  ++        ++##$$%%%%%%%%$$##..  ++        ++  ..  ..",
"  ..++..  ..  ++..########$$%%%%%%%%$$########++..  ..  ....++  ",
"  ..++..  ..  ++..########$$%%%%%%%%$$########++..  ..  ....++  ",
"..  ..  ..++  ++##$$%%%%&&************&&%%%%$$##++++..  ++++..  ",
"..  ..  ..++  ++##$$%%%%&&************&&%%%%$$##++++..  ++++..  ",
"++++....    ++..==$$$$%%%%%%%%%%%%%%%%%%%%$$$$##  ..++++++    ..",
"++++....    ++..==$$$$%%%%%%%%%%%%%%%%%%%%$$$$##  ..++++++    ..",
"++..    ++++..  ##$$$$$$################$$$$$$##..      ++  ++++",
"++..    ++++..  ##$$$$$$################$$$$$$##..      ++  ++++",
"  ..++..  ++..++..##$$##--;;;;;;;;;;;;--##$$##++..  ..  ....++..",
"  ..++..  ++..++..##$$##--;;;;;;;;;;;;--##$$##++..  ..  ....++..",
"..++..  ++++++..  ..####--;;>>;;;;>>;;--####++..  ..++..    ....",
"..++..  ++++++..  ..####--;;>>;;;;>>;;--####++..  ..++..    ....",
"++..++..++  ..  ..++..##--;;,,;;;;,,;;--##  ..  ..++....++..++..",
"++..++..++  ..  ..++..##--;;,,;;;;,,;;--##  ..  ..++....++..++..",
"  ..    ..++  ..++..    ##--;;;;;;;;--##..++  ..++..    ..    ++",
"  ..    ..++  ..++..    ##--;;;;;;;;--##..++  ..++..    ..    ++",
"++....++..++++      ++..##$$$$$$$$''$$##..++++      ++..    ..  ",
"++....++..++++      ++..##$$$$$$$$''$$##..++++      ++..    ..  ",
"  ..  ++++  ........  ##))%%))%%''!!''))##  ........  ++..++  ..",
"  ..  ++++  ........  ##))%%))%%''!!''))##  ........  ++..++  ..",
"..++++++..      ++++++;;~~~~{{''!!~~!!'';;      ++++++  ..  ....",
"..++++++..      ++++++;;~~~~{{''!!~~!!'';;      ++++++  ..  ....",
"++++  ..++  ..  ..  ....##~~$$##''!!''##++  ..  ..  ....  ....  ",
"++++  ..++  ..  ..  ....##~~$$##''!!''##++  ..  ..  ....  ....  ",
"..  ++..  ++  ..      ]]]]####]]^^''##^^^^++  ..        ....++..",
"..  ++..  ++  ..      ]]]]####]]^^''##^^^^++  ..        ....++..",
"++++..    ++++..  ++++..]]]]]]]]^^^^^^]]  ++++..  ++++....  ..  ",
"++++..    ++++..  ++++..]]]]]]]]^^^^^^]]  ++++..  ++++....  ..  ",
"..  ....++....  ..  ++  ..  ......  ....++....  ..  ++  ..  ....",
"..  ....++....  ..  ++  ..  ......  ....++....  ..  ++  ..  ....",
"  ..++++..  ++        ++  ..  ..  ..++++..  ++        ++  ..  ..",
"  ..++++..  ++        ++  ..  ..  ..++++..  ++        ++  ..  ..",
"  ..++..  ..  ++..  ..  ....++    ..++..  ..  ++..  ..  ....++  ",
"  ..++..  ..  ++..  ..  ....++    ..++..  ..  ++..  ..  ....++  ",
"..  ..  ..++  ++++++..  ++++..  ..  ..  ..++  ++++++..  ++++..  ",
"..  ..  ..++  ++++++..  ++++..  ..  ..  ..++  ++++++..  ++++..  ",
"++++....    ++..  ..++++++    ..++++....    ++..  ..++++++    ..",
"++++....    ++..  ..++++++    ..++++....    ++..  ..++++++    ..",
"++..    ++++..  ..      ++  ++++++..    ++++..  ..      ++  ++++",
"++..    ++++..  ..      ++  ++++++..    ++++..  ..      ++  ++++",
"  ..++..  ++..++..  ..  ....++..  ..++..  ++..++..  ..  ....++..",
"  ..++..  ++..++..  ..  ....++..  ..++..  ++..++..  ..  ....++..",
"..++..  ++++++..  ..++..    ......++..  ++++++..  ..++..    ....",
"..++..  ++++++..  ..++..    ......++..  ++++++..  ..++..    ....",
"++..++..++  ..  ..++....++..++..++..++..++  ..  ..++....++..++..",
"++..++..++  ..  ..++....++..++..++..++..++  ..  ..++....++..++.."};
